<svg xmlns="http://www.w3.org/2000/svg" xmlns:xlink="http://www.w3.org/1999/xlink" width="1500" zoomAndPan="magnify" viewBox="0 0 1125 1124.99995" height="1500" preserveAspectRatio="xMidYMid meet" version="1.0"><path fill="#e17924" d="M 56.25 0 L 359.269531 0 C 403.546875 0 430.46875 48.800781 406.84375 86.265625 L 103.828125 566.640625 C 73.742188 614.339844 0 593.03125 0 536.625 L 0 56.25 C 0 54.40625 0.0898438 52.570312 0.269531 50.738281 C 0.453125 48.902344 0.722656 47.082031 1.082031 45.277344 C 1.441406 43.46875 1.886719 41.683594 2.421875 39.921875 C 2.957031 38.160156 3.578125 36.425781 4.28125 34.722656 C 4.988281 33.023438 5.773438 31.359375 6.640625 29.734375 C 7.511719 28.109375 8.457031 26.53125 9.480469 25 C 10.503906 23.46875 11.597656 21.988281 12.769531 20.566406 C 13.9375 19.140625 15.171875 17.777344 16.476562 16.476562 C 17.777344 15.171875 19.140625 13.9375 20.566406 12.769531 C 21.988281 11.597656 23.46875 10.503906 25 9.480469 C 26.53125 8.457031 28.109375 7.511719 29.734375 6.640625 C 31.359375 5.773438 33.023438 4.988281 34.722656 4.28125 C 36.425781 3.578125 38.160156 2.957031 39.921875 2.421875 C 41.683594 1.886719 43.46875 1.441406 45.277344 1.082031 C 47.082031 0.722656 48.902344 0.453125 50.738281 0.269531 C 52.570312 0.0898438 54.40625 0 56.25 0 Z M 56.25 0 " fill-opacity="1" fill-rule="nonzero"/><path fill="#e17924" d="M 54.328125 1038.769531 L 692.203125 26.269531 C 693.460938 24.265625 694.84375 22.351562 696.347656 20.523438 C 697.851562 18.695312 699.464844 16.96875 701.1875 15.34375 C 702.90625 13.71875 704.722656 12.207031 706.636719 10.8125 C 708.546875 9.417969 710.542969 8.148438 712.613281 7.003906 C 714.6875 5.859375 716.824219 4.851562 719.023438 3.976562 C 721.222656 3.101562 723.46875 2.371094 725.761719 1.777344 C 728.054688 1.1875 730.375 0.746094 732.726562 0.445312 C 735.074219 0.148438 737.433594 0 739.800781 0 L 1023.074219 0 C 1067.355469 0 1094.277344 48.78125 1070.671875 86.230469 L 432.796875 1098.730469 C 431.539062 1100.734375 430.15625 1102.648438 428.652344 1104.476562 C 427.148438 1106.304688 425.535156 1108.03125 423.8125 1109.65625 C 422.09375 1111.28125 420.277344 1112.792969 418.363281 1114.1875 C 416.449219 1115.582031 414.457031 1116.851562 412.386719 1117.996094 C 410.3125 1119.140625 408.175781 1120.148438 405.976562 1121.023438 C 403.777344 1121.898438 401.53125 1122.628906 399.238281 1123.222656 C 396.945312 1123.8125 394.625 1124.253906 392.273438 1124.554688 C 389.925781 1124.851562 387.566406 1125 385.199219 1125 L 101.925781 1125 C 57.644531 1125 30.722656 1076.21875 54.328125 1038.769531 Z M 54.328125 1038.769531 " fill-opacity="1" fill-rule="nonzero"/><path fill="#e17924" d="M 1068.75 1125 L 765.730469 1125 C 721.453125 1125 694.53125 1076.199219 718.15625 1038.734375 L 1021.171875 558.359375 C 1051.257812 510.660156 1125 531.96875 1125 588.375 L 1125 1068.75 C 1125 1070.59375 1124.910156 1072.429688 1124.730469 1074.261719 C 1124.546875 1076.097656 1124.277344 1077.917969 1123.917969 1079.722656 C 1123.558594 1081.53125 1123.113281 1083.316406 1122.578125 1085.078125 C 1122.042969 1086.839844 1121.421875 1088.574219 1120.71875 1090.277344 C 1120.011719 1091.976562 1119.226562 1093.640625 1118.359375 1095.265625 C 1117.488281 1096.890625 1116.542969 1098.46875 1115.519531 1100 C 1114.496094 1101.53125 1113.402344 1103.011719 1112.230469 1104.433594 C 1111.0625 1105.859375 1109.828125 1107.222656 1108.523438 1108.523438 C 1107.222656 1109.828125 1105.859375 1111.0625 1104.433594 1112.230469 C 1103.011719 1113.398438 1101.53125 1114.496094 1100 1115.519531 C 1098.46875 1116.542969 1096.890625 1117.488281 1095.265625 1118.359375 C 1093.640625 1119.226562 1091.976562 1120.011719 1090.277344 1120.71875 C 1088.574219 1121.421875 1086.839844 1122.042969 1085.078125 1122.578125 C 1083.316406 1123.113281 1081.53125 1123.558594 1079.722656 1123.917969 C 1077.917969 1124.277344 1076.097656 1124.546875 1074.261719 1124.730469 C 1072.429688 1124.910156 1070.59375 1125 1068.75 1125 Z M 1068.75 1125 " fill-opacity="1" fill-rule="nonzero"/></svg>